<svg xmlns="http://www.w3.org/2000/svg" viewBox="0 0 448.423 177.411" id="flooring">
  <path d="M49.217 130h114.766c-1.472-.943-3.413-2.274-5.362-4.05h-4.167l1.078-3.279c-1.28-1.601-2.441-3.437-3.322-5.538l-3.122 8.817h-42.929l30.991-55.69h31.66l-.564 1.594a101.631 101.631 0 0 1 6.399-7.302l8.82-26.821h25.077l-.809 6.399c.424-.019.849-.029 1.274-.029.678 0 1.35.032 2.017.081l.653-6.451.136-1.341 2.023-19.99h10.676c.337-.316.682-.623 1.034-.921H213.93L215.429.663H233l1.005 9.928c.774-.279 1.558-.53 2.355-.739L235.198.663h17.576l3.855 11.722a27.4 27.4 0 0 1 3.239 2.106L254.97.661h17.576l8.245 14.816h-19.683c.33.281.655.57.974.867 4.932 4.604 7.782 10.611 8.522 16.838 4.351 4.144 7.951 8.628 10.16 12.691 4.044 7.438 2.453 11.611.406 13.803-1.063 1.14-3.005 2.499-6.209 2.499-.998 0-2.051-.153-3.133-.407-2.15 1.085-6.161-.715-10.607-4.457-4.957 4.245-11.332 6.637-17.909 6.637a27.7 27.7 0 0 1-3.938-.282l.322 3.181 27.761 34.076 72.822-22.009 13.597 44.99L333.705 130h114.719l-59.68-57.547-4.485-4.325-53.648-51.73-.955-.921L313.603 0H134.82l-16.051 15.477-.955.921-53.648 51.73-4.485 4.325L0 130h49.217zm389.64-4.05h-42.929l-45.077-55.69h31.66l56.346 55.69zm-58.503-57.822h-31.228L324.52 37.73l-1.086-1.341-16.18-19.99h20.761l52.339 51.729zM312.092.661l14.991 14.816h-20.574L294.516.661h17.576zm-19.773 0 11.618 14.816.722.921 15.675 19.99h-24.806l-11.63-19.99-.536-.921-8.62-14.816h17.577zM134.43 68.128l-2.516 4.325-31.123 53.497H57.862L99.81 72.453l3.391-4.325 23.836-30.398h25.077L134.43 68.128zm46.372-31.74-.475 1.341-10.765 30.398h-31.228l16.916-30.398.746-1.341 11.124-19.99h20.761l-7.079 19.99zM195.651.661h17.576l-1.874 14.816-.116.921-2.528 19.99h-24.806l6.573-19.99.303-.921L195.651.661zm-19.774 0h17.576l-5.247 14.816h-20.574L175.877.661zm-19.773 0h17.576l-8.62 14.816-.536.921-11.63 19.99h-24.806l15.675-19.99.722-.921L156.104.661zm-19.773 0h17.576l-11.993 14.816H121.34L136.331.661zm-15.922 15.737h20.761l-16.18 19.99-1.086 1.341-24.606 30.399H68.069l52.34-51.73zM65.913 70.26h31.66l-45.077 55.69H9.566l56.347-55.69zm112.863 61.898-1.134.077c-.296.02-.59.029-.882.029-.32 0-.638-.011-.954-.028a8.747 8.747 0 0 1-1.031-.09 14.422 14.422 0 0 1-1.244-.213L182.25 151h-29.538c-6.903 0-12.5 5.596-12.5 12.5 0 6.903 5.597 12.5 12.5 12.5h49c4.255 0 8.218-2.165 10.518-5.745a12.455 12.455 0 0 0 1.67-4.046l-22.754 6.877-12.37-40.928z"></path>
  <path d="M157.577 98.959c-6.076 15.236 2.313 22.594 10.084 27.451.247.155.49.305.73.453a12.468 12.468 0 0 0 6.722 3.008c.275.041.548.062.819.069.512.029 1.028.037 1.553.001l.608-.041-.545-1.803 29.962-9.055-1.585-1.143a10.282 10.282 0 0 1-4.234-7.465l-.619-7.156-4.013.273a149.646 149.646 0 0 1 3.653-4.423l-2.519-29.102c-.238-2.741.605-5.41 2.376-7.516s4.255-3.396 6.996-3.634c.305-.027.61-.04.913-.04 5.371 0 9.772 4.047 10.236 9.414l.935 10.802a24.83 24.83 0 0 0 1.531-1.682l24.541 30.124 16.56-5.005-36.639-44.975c-.37-.311-.734-.629-1.09-.961a27.78 27.78 0 0 1-3.106-3.435c-6.602-5.023-18.141-6.41-29.066 2.214-16.633 13.288-24.965 23.542-34.803 43.627z"></path>
  <path d="m224.451 101.684-2.825.192.18 2.076 10.518 7.588 4.794-1.449a12.507 12.507 0 0 0-12.667-8.407zm5.901 67.175c1.746 5.239 6.623 8.552 11.857 8.552 1.31 0 2.643-.208 3.953-.645 6.55-2.182 10.09-9.261 7.908-15.811l-2.085-6.257-23.941 7.236 2.308 6.925zM257.531 53.86a62.337 62.337 0 0 1-4.191-4.819c-7.199-9.17-10.612-18.529-7.787-21.181-1.247 3.569 3.458 11.598 11.357 18.971 8.68 8.102 17.907 12.325 20.607 9.433 2.701-2.894-2.146-11.809-10.827-19.911-.298-.278-.598-.54-.897-.809A22.42 22.42 0 0 0 258.67 20c-9.084-8.479-23.322-7.988-31.801 1.095-8.48 9.085-7.988 23.322 1.095 31.801 8.332 7.777 20.984 7.987 29.567.964zM338.274 82.653 235.385 113.75l4.185 3.018 95.966-29.004 9.489 31.398-149.137 45.074-9.489-31.398 28.357-8.57-4.185-3.019-29.283 8.851 11.861 39.247L350.136 121.9z"></path>
  <path d="m219.606 105.202-3.183-36.755a7.976 7.976 0 0 0-8.66-7.28 7.999 7.999 0 0 0-7.279 8.66l3.498 40.408a7.997 7.997 0 0 0 3.289 5.798l35 25.25a7.968 7.968 0 0 0 4.674 1.513 8 8 0 0 0 4.687-14.488l-32.026-23.106z"></path>
</svg>
